<svg xmlns="http://www.w3.org/2000/svg" id="a" viewBox="0 0 1080 490"><path id="b" d="M180.37,265.33c-9.76-.56-17.15-2.79-17.15-2.79v36.66c-.98.56-1.81,1.12-2.79,1.81-5.58-6.55-18.12-15.19-35.13-8.22-16.03,6.55-20.49,23.98-21.74,30.81-4.04-2.09-8.5-3.21-13.38-3.21-9.76,0-18.96,7.25-24.39,14.5v.14c19.79,0,31.5,11.01,32.06,11.57,1.67,1.67,1.67,4.46,0,6.13-.84.84-1.95,1.25-3.07,1.25s-2.23-.42-3.07-1.25c-.56-.42-11.43-10.45-30.53-8.64h0c-19.65,2.23-35.27,18.54-38.19,37.91,10.87-2.09,19.38.84,19.79.98,2.23.84,3.35,3.21,2.65,5.58-.84,2.23-3.21,3.48-5.58,2.65,0,0-8.08-3.07-17.98,0-11.99,3.9-20.63,15.61-20.63,29.13,0,4.18.84,8.22,2.37,11.99C1.24,436.37,0,440.97,0,445.99c0,16.03,12.55,28.99,28.44,29.97,9.76,3.21,24.11,6.41,45.44,8.92,17.56,2.09,39.73,3.62,67.88,4.46,11.85.28,38.61,4.04,38.61-44.33v-179.67h0ZM114.58,317.61c.84-.42,7.81-3.9,15.33-1.39,3.9,1.39,6.97,4.04,9.34,7.95,6.69.28,21.47,3.62,28.71,27.46.7,2.23-.56,4.6-2.79,5.44-.42,0-.84.14-1.25.14-1.81,0-3.48-1.25-4.04-3.07-7.39-23.98-22.16-21.47-22.3-21.33-1.95.42-3.9-.7-4.74-2.51-1.39-3.21-3.21-5.16-5.58-5.99-4.04-1.39-8.5.84-8.5.84-2.09,1.12-4.74.28-5.72-1.81-1.12-2.09-.28-4.74,1.81-5.72h-.28.01ZM61.47,432.46c-.7.98-1.81,1.53-3.07,1.67h-.42c-1.12,0-2.23-.42-2.93-1.12-9.62-9.06-18.68-13.52-26.21-12.55-7.53.84-11.71,6.69-11.71,6.83-1.25,1.95-3.9,2.51-5.99,1.25-1.95-1.25-2.51-4.04-1.25-5.99.28-.42,6.27-9.34,17.84-10.59,9.34-1.12,19.38,2.93,29.83,11.85,2.93-2.93,7.53-6.41,12.68-6.97,3.62-.42,6.97.84,9.9,3.48,1.81,1.67,1.81,4.32.28,6.13s-4.32,1.81-6.13.28c-.98-.98-2.09-1.39-3.21-1.25-3.62.28-8.08,4.88-9.76,7.11l.14-.14h0ZM97.16,455.74c-.98,2.23-3.48,3.21-5.58,2.23-4.18-1.81-5.99-.7-6.55-.42-3.21,1.81-4.46,7.81-4.74,9.34-.28,2.23-2.09,3.76-4.32,3.76h-.56c-2.37-.28-4.04-2.37-3.76-4.74,0-1.12,1.53-11.43,8.92-15.75,2.79-1.67,7.53-2.93,14.22,0,2.23.98,3.21,3.48,2.23,5.58h.14ZM101.2,386.46c-2.79,1.67-3.07,5.58-3.07,5.58-.14,2.23-2.09,4.04-4.32,4.04h-.28c-2.37-.14-4.18-2.23-4.04-4.6,0-.84.7-8.22,7.11-12.27,4.18-2.65,9.48-3.07,15.89-1.12,6.83-9.62,21.61-21.33,40.28-11.57,2.09,1.12,2.93,3.76,1.81,5.85s-3.76,2.93-5.85,1.81c-18.54-9.62-30.25,10.31-30.81,11.15-1.12,1.81-3.35,2.65-5.3,1.95-3.62-1.39-8.5-2.65-11.43-.7v-.14.02ZM169.08,454.07c-1.53,0-3.07-.84-3.9-2.37-.56-.98-12.55-24.81-34.29-16.17-1.25.42-2.51.42-3.76-.28-1.12-.7-1.95-1.81-2.09-3.07-.42-2.37-2.37-9.34-6.55-12.13-1.81-1.25-4.04-1.53-6.55-.98-2.37.42-4.6-.98-5.16-3.35s.98-4.6,3.35-5.16c4.88-.98,9.48-.28,13.24,2.37,4.88,3.35,7.53,8.92,8.92,12.96,20.91-5.3,35.54,11.57,40.56,21.88.98,2.09.14,4.74-1.95,5.72-.56.28-1.25.42-1.95.42l.14.14v.02ZM405.91,300.32c0,11.15,11.15,17.56,81.68,17.56,56.04,0,327.57-.84,368.41-.42,64.26.56,79.87-7.81,80.01-18.96,0-10.31-23.28-12.55-53.39-12.55-39.87,0-331.61.56-396.15,0-44.88-.42-80.43,4.74-80.43,14.36h-.14.01ZM189.15,265.33c9.76-.56,17.15-2.79,17.15-2.79v36.66c.98.56,1.81,1.12,2.79,1.81,5.58-6.55,18.12-15.19,35.13-8.22,16.03,6.55,20.49,23.98,21.74,30.81,4.04-2.09,8.5-3.21,13.38-3.21,9.76,0,18.96,7.25,24.39,14.5v.14c-19.79,0-31.5,11.01-32.06,11.57-1.67,1.67-1.67,4.46,0,6.13.84.84,1.95,1.25,3.07,1.25s2.23-.42,3.07-1.25c.56-.42,11.43-10.45,30.53-8.64h0c19.65,2.23,35.27,18.54,38.19,37.91-10.87-2.09-19.38.84-19.79.98-2.23.84-3.35,3.21-2.65,5.58.84,2.23,3.21,3.48,5.58,2.65,0,0,8.08-3.07,17.98,0,11.99,3.9,20.63,15.61,20.63,29.13,0,4.18-.84,8.22-2.37,11.99,2.09,4.18,3.48,8.78,3.48,13.8,0,16.03-12.55,28.99-28.44,29.97-9.76,3.21-24.11,6.41-45.44,8.92-17.56,2.09-39.73,3.62-67.88,4.46-11.85.28-38.61,4.04-38.61-44.33v-179.54l.14-.28h-.01ZM255.09,317.61c-.84-.42-7.81-3.9-15.33-1.39-3.9,1.39-6.97,4.04-9.34,7.95-6.69.28-21.47,3.62-28.71,27.46-.7,2.23.56,4.6,2.79,5.44.42,0,.84.14,1.25.14,1.81,0,3.48-1.25,4.04-3.07,7.39-23.98,22.16-21.47,22.3-21.33,1.95.42,3.9-.7,4.74-2.51,1.39-3.21,3.21-5.16,5.58-5.99,4.04-1.39,8.5.84,8.5.84,2.09,1.12,4.74.28,5.72-1.81,1.12-2.09.28-4.74-1.81-5.72h.28,0ZM308.05,432.46c.7.98,1.81,1.53,3.07,1.67h.42c1.12,0,2.23-.42,2.93-1.12,9.62-9.06,18.68-13.52,26.21-12.55,7.53.84,11.71,6.69,11.71,6.83,1.25,1.95,3.9,2.51,5.99,1.25,1.95-1.25,2.51-4.04,1.25-5.99-.28-.42-6.27-9.34-17.84-10.59-9.34-1.12-19.38,2.93-29.83,11.85-2.93-2.93-7.53-6.41-12.68-6.97-3.62-.42-6.97.84-9.9,3.48-1.81,1.67-1.81,4.32-.28,6.13s4.32,1.81,6.13.28c.98-.98,2.09-1.39,3.21-1.25,3.62.28,8.08,4.88,9.76,7.11l-.14-.14h-.01ZM272.37,455.74c.98,2.23,3.48,3.21,5.58,2.23,4.18-1.81,5.99-.7,6.55-.42,3.21,1.81,4.46,7.81,4.74,9.34.28,2.23,2.09,3.76,4.32,3.76h.56c2.37-.28,4.04-2.37,3.76-4.74,0-1.12-1.53-11.43-8.92-15.75-2.79-1.67-7.53-2.93-14.22,0-2.23.98-3.21,3.48-2.23,5.58h-.14,0ZM268.33,386.46c2.79,1.67,3.07,5.58,3.07,5.58.14,2.23,2.09,4.04,4.32,4.04h.28c2.37-.14,4.18-2.23,4.04-4.6,0-.84-.7-8.22-7.11-12.27-4.18-2.65-9.48-3.07-15.89-1.12-6.83-9.62-21.61-21.33-40.28-11.57-2.09,1.12-2.93,3.76-1.81,5.85s3.76,2.93,5.85,1.81c18.54-9.62,30.25,10.31,30.81,11.15,1.12,1.81,3.35,2.65,5.3,1.95,3.62-1.39,8.5-2.65,11.43-.7v-.14.02ZM200.58,454.07c1.53,0,3.07-.84,3.9-2.37.56-.98,12.55-24.81,34.29-16.17,1.25.42,2.51.42,3.76-.28,1.12-.7,1.95-1.81,2.09-3.07.42-2.37,2.37-9.34,6.55-12.13,1.81-1.25,4.04-1.53,6.55-.98,2.37.42,4.6-.98,5.16-3.35s-.98-4.6-3.35-5.16c-4.88-.98-9.48-.28-13.24,2.37-4.88,3.35-7.53,8.92-8.92,12.96-20.91-5.3-35.54,11.57-40.56,21.88-.98,2.09-.14,4.74,1.95,5.72.56.28,1.25.42,1.95.42l-.14.14v.02Z" style="fill:#dd79c0;"></path><path d="M938.39,374.32c-7.7-4.59-14.35-8.55-14.35-14.17,0-2.07.61-4.44,5.41-4.44,6.83,0,8.42,3.5,10.25,7.55,1.89,4.17,4.03,8.9,12.47,8.9s11.59-4.43,11.59-14.38c0-14.16-14.15-24.84-32.92-24.84-10.61,0-18.58,2.53-23.68,7.52-4.56,4.46-6.87,10.89-6.87,19.13,0,21.64,15.83,30.22,27.38,36.48,7.06,3.82,12.63,6.84,12.63,11.33,0,3.74-4,4.3-6.39,4.3-4.66,0-6.75-3.36-9.18-7.25-2.69-4.31-5.75-9.2-12.98-9.2s-11.45,5.29-11.45,14.52c0,10.31,9.48,24.84,30.55,24.84,22.15,0,32.92-8.9,32.92-27.21s-14.08-26.34-25.38-33.08Z" style="fill:#1e2245;"></path><path d="M994.14,236.21c11.15,0,19.93,11.99,19.93,24.67,0,7.11-4.46,9.76-9.62,9.76-20.49,0-28.16-13.94-43.77-13.94-10.45,0-13.66,6.55-13.66,24.39h-.15c0,18.68,22.45,36.66,58.27,36.66,45.44,0,53.11-23.69,53.11-101.89,0-110.12-9.34-129.22-24.67-129.22-19.65,0-21.74,11.01-21.74,42.51s4.18,64.54-11.15,64.54c-18.12,0-11.15-52.55-11.15-80.43,0-14.21-.14-26.62-22.3-26.62-17.01,0-21.33,11.29-21.33,96.04,0,36.38,9.62,53.53,48.23,53.53Z" style="fill:#1e2245;"></path><polygon points="443.26 63.5 443.26 63.49 443.25 63.5 443.26 63.5" style="fill:#1e2245;"></polygon><path d="M422.49,28.51c.14,0,.42.14.42.42,0,1.81-4.04,15.61-4.04,26.62h.14c0,11.7,2.79,14.91,8.22,14.91s8.22-3.2,8.22-14.91c0-11.01-4.04-24.81-4.04-26.62,0-.28.42-.42.42-.42.97,0,6.55-.56,6.55-7.39,0-7.39-1.95-8.92-11.29-8.92-11.15,0-17.84,1.53-17.84,8.92,0,6.83,12.26,7.39,13.24,7.39Z" style="fill:#1e2245;"></path><path d="M250.5,130.12h.12v-3.76C250.76,56.81,196.68.35,184.69.35s-65.93,56.45-65.93,126.01v3.76c-22.02,20.35-45.3,61.61-34.01,146.22,0,0,29.27-34.85,64.96-51.44.42.56.84,1.53,1.25,2.37,0,.14.14.42.28.56.42.98.84,2.09,1.12,3.21,1.39,4.04,2.37,8.64,2.37,10.18,0,6.13,6.83,11.01,29.97,11.01s29.97-4.88,29.97-11.01c0-1.53.98-6.13,2.37-10.18.42-1.12.7-2.09,1.12-3.07,0-.28.14-.42.28-.7.42-.98.84-1.81,1.25-2.37,35.82,16.59,64.96,51.44,64.96,51.44,11.15-84.61-12.13-125.87-34.15-146.22ZM184.83,143.37c-13.8,0-24.95-15.61-24.95-34.99s11.15-34.99,24.95-34.99,24.95,15.61,24.95,34.99-11.15,34.99-24.95,34.99Z" style="fill:#1e2245;"></path><path d="M1063.41,48.3c-9.2,0-16.59,7.39-16.59,16.59s7.39,16.59,16.59,16.59,16.59-7.39,16.59-16.59-7.39-16.59-16.59-16.59ZM1063.41,78.55c-7.53,0-13.52-5.99-13.52-13.52s6.13-13.52,13.52-13.52,13.52,5.99,13.52,13.52-5.99,13.52-13.52,13.52Z" style="fill:#1e2245;"></path><path d="M951.88,443.76c-6.69-3.48-14.63-2.23-21.74-2.23h-33.45c-6.41,0-13.1.7-19.51,0-6.42-.7-10.04-3.21-10.04-9.2,0-7.67,3.49-11.99,7.81-11.99,11.29,0,16.73-3.63,16.73-14.22,0-11.43-6.69-13.24-15.19-13.24s-12.82-3.07-12.82-10.18c0-10.17,2.38-10.59,7.53-10.59s6.27,1.25,10.31,1.25c10.59,0,11.43-5.71,11.43-19.93s-6.55-18.54-25.09-18.54c-27.88,0-32.34,4.32-32.34,71.23h-.02s-.14-.41-.14-.41c0,66.91,4.46,71.23,32.34,71.23h71.93c16.45-.56,22.3-4.19,22.3-17.15,0-6.83-4.05-12.82-10.04-16.03Z" style="fill:#1e2245;"></path><path d="M450.36,70.33c4.74,0,8.22-1.67,8.22-6.97,0-3.21-1.81-9.06-1.81-11.43s.56-4.18,4.6-4.18c2.37,0,2.93,6.55,2.93,13.94,0,5.3,2.23,8.78,7.53,8.78,4.6,0,6.41-1.67,6.41-6.97V19.17c0-5.16-1.81-6.97-6.41-6.97-5.29,0-8.22,4.87-8.22,10.45s-.56,9.9-2.37,9.9c-2.79,0-4.04-2.09-4.04-4.04s.56-5.58.56-9.34c0-5.16-2.93-6.97-7.53-6.97-5.16,0-6.97,1.67-6.97,6.97v44.32l.13-.13c0,5.16,1.67,6.97,6.97,6.97Z" style="fill:#1e2245;"></path><path d="M525.79,167.08c0,92.55-2.65,102.17,21.88,102.17,14.5,0,19.24-4.88,19.24-21.33,0-34.71-4.74-56.04,2.09-56.04,3.35,0,1.82,1.82,5.44,16.73,3.06,13.38,13.8,60.77,38.05,60.77,15.05,0,21.88-4.88,21.88-19.24,0-24.82-23.98-24.26-23.98-62.59,0-4.18,23.98,2.09,23.98-52.13,0-34.85-30.24-49.76-68.86-49.76s-39.87,21.32-39.87,81.54v.02s.15-.14.15-.14ZM577.07,124.28c9.62,0,17.15,8.08,17.15,15.61,0,9.75-8.09,14.91-16.17,14.91h-.01c-9.06,0-13.52-2.37-13.52-17.42,0-11.01,2.93-13.1,12.55-13.1Z" style="fill:#1e2245;"></path><path d="M780.87,131.1c17.01,0,20.63-13.24,20.63-22.72s-5.58-22.72-20.63-22.72c-17,0-22.72,10.45-22.72,22.72,0,17,5.71,22.72,22.72,22.72Z" style="fill:#1e2245;"></path><path d="M484.53,41.62c0,27.32,1.67,29.13,13.94,29.13s16.87-.98,16.87-5.44c0-6.83-1.11-10.87-6.69-10.87-2.93,0-5.16.84-7.67.84-1.81,0-2.37-2.37-2.37-3.07,0-1.25.56-3.48,1.81-3.48,1.11,0,4.18.28,6.41.28,2.79,0,5.02-.84,5.02-7.67,0-4.74-1.53-5.44-6.97-5.44s-6.83-.98-6.83-2.93,1.25-2.93,2.37-2.93c1.25,0,5.02.7,6.69.7,4.87,0,8.08-.97,8.08-11.01,0-5.72-12.69-7.53-16.87-7.53-12.13,0-13.94,1.67-13.94,29.13h.01s.14.29.14.29Z" style="fill:#1e2245;"></path><path d="M781.85,269.38c15.61,0,20.07-5.3,20.07-32.9,0-92.27-2.37-97.71-20.07-97.71-23.7,0-23.7,5.58-23.7,100.64,0,24.81,8.09,29.97,23.7,29.97Z" style="fill:#1e2245;"></path><path d="M705.46,375.45c-18.54,0-18.54,4.32-18.54,78.62,0,19.38,6.41,23.42,18.54,23.42s15.61-4.04,15.61-25.65c0-72.07-1.81-76.39-15.61-76.39Z" style="fill:#1e2245;"></path><path d="M745.89,247.49c0-136.6-1.67-161.83-51.02-161.83s-50.88,24.53-50.88,161.55h.01s.14,0,.14,0c0,17,4.18,22.16,22.16,22.16,14.77,0,19.79-5.15,19.79-21.88,0-32.89,1.81-38.33,9.06-38.33s9.34,5.43,9.34,38.33c0,16.72,5.16,21.88,21.33,21.88,14.63,0,20.07-5.15,20.07-21.88ZM696.95,156.05h0c-10.88-.01-16.87-7.12-16.87-14.09,0-7.52,1.67-15.33,11.99-15.33s17.15,2.79,17.15,17.15c0,8.09-4.46,12.27-12.27,12.27Z" style="fill:#1e2245;"></path><path d="M720.65,351.61c0-7.39-4.18-17.7-16.03-17.7-13.24,0-17.7,8.08-17.7,17.7,0,13.24,4.6,17.7,17.7,17.7s16.03-10.31,16.03-17.7Z" style="fill:#1e2245;"></path><path d="M1068.86,64.61c.7-.84.98-1.81.98-2.93,0-.98-.28-1.68-.7-2.51-.42-.83-1.11-1.39-1.95-1.81s-1.96-.7-3.21-.7h-5.72v16.45h2.65v-6.55h2.09l3.76,6.55h0v.14h3.21l-4.04-6.83c1.4-.28,2.37-.97,2.93-1.81ZM1060.9,64.47v-5.44h2.93c.98,0,1.67.28,2.23.7.42.42.7.98.7,1.95s-.28,1.67-.7,2.09c-.42.42-1.25.7-2.23.7h-2.93Z" style="fill:#1e2245;"></path><path d="M854.88,198.02c0-4.46,5.02-5.99,6.83-2.09,27.88,64.12,32.9,73.46,52.97,73.46,17.98,0,18.82-19.52,18.82-67.19,0-97.16,0-115.14-18.82-115.14-26.9,0-22.44,14.08-22.44,75.83,0,3.9-4.46,4.88-5.99,1.53-30.81-71.09-33.87-77.36-52.69-77.36-13.38,0-19.1,6.27-19.1,79.45h0s0-.13,0-.13c0,94.93-4.46,103.01,19.79,103.01,29.97,0,20.63-30.39,20.63-71.37Z" style="fill:#1e2245;"></path><path d="M810.27,335.04c-21.04,0-17.56,11.01-17.56,59.24,0,3.06-3.49,3.9-4.74,1.25-23.97-55.62-26.48-60.5-41.12-60.5-10.45,0-14.91,4.88-14.91,62.03h-.01s.14.15.14.15c0,74.16-3.49,80.43,15.47,80.43,23.42,0,16.03-23.84,16.03-55.76,0-3.48,3.91-4.74,5.3-1.67,21.89,50.04,25.79,57.43,41.4,57.43,14.08,0,14.64-15.33,14.64-52.55,0-75.97,0-90.05-14.64-90.05Z" style="fill:#1e2245;"></path><path d="M1010.15,364.02c21.89,0,10.6,23.84,33.04,23.84,9.61,0,15.33-4.47,15.33-19.38,0-20.77-21.19-34.57-46.28-34.57-31.64,0-42.79,15.61-42.79,37.22,0,49.49,57.99,50.18,57.99,69.28,0,4.74-3.62,7.81-10.73,7.81-15.89,0-13.66-23.84-32.2-23.84-10.73,0-15.05,8.36-15.05,19.51h-.15c0,14.78,13.66,34.57,42.79,34.57,33.04,0,46.28-13.8,46.28-38.05,0-42.93-57.57-46.83-57.57-68.44,0-5.44,3.21-7.95,9.34-7.95Z" style="fill:#1e2245;"></path><path d="M452.88,269.38c44.05,0,62.31-2.09,62.31-45.3,0-39.87-19.79-41.4-19.79-47.95s19.79-11.01,19.79-44.05c0-39.87-27.32-46.42-62.31-46.42-38.33,0-43.77,6.55-43.77,92.28h0c0,86,5.16,91.44,43.77,91.44ZM460.97,119.53c7.38,0,14.91,4.19,14.91,12.55,0,11.15-5.99,17.7-14.91,17.7s-14.36-7.39-14.36-16.73c0-7.8,1.54-13.52,14.36-13.52ZM456.92,202.47c9.62,0,17.15,6.97,17.15,17.98,0,5.99-1.81,13.8-13.8,13.8h-.01c-11.15,0-15.33-9.34-15.33-15.89.28-6.97,1.81-15.89,11.99-15.89Z" style="fill:#1e2245;"></path><path d="M565.23,334.89c-12.69,0-16.31,6.55-16.31,24.81,0,68.86,1.95,82.66-7.81,82.66-11.01,0-7.39-11.99-7.39-85.73,0-11.56-.56-21.74-15.47-21.74-13.38,0-17.84,6.55-17.84,63.7h0c0,55.49,2.22,79.74,40.7,79.74s39.73-25.79,39.73-101.76c0-33.18-4.04-41.68-15.61-41.68Z" style="fill:#1e2245;"></path><path d="M492.05,370.15c0-31.22-21.33-36.24-48.65-36.24-29.83,0-34.15,5.16-34.15,72.07s4.04,71.51,34.15,71.51c34.43,0,48.65-1.68,48.65-35.41,0-31.23-15.47-32.34-15.47-37.5s15.47-8.5,15.47-34.43ZM449.12,449.89h0c-8.78.01-11.99-7.38-11.99-12.4.14-5.44,1.39-12.41,9.34-12.41,7.53,0,13.38,5.58,13.38,14.08,0,4.6-1.39,10.73-10.73,10.73ZM449.67,383.96h0c-7.11-.01-11.15-5.58-11.15-12.97,0-6.13,1.11-10.59,11.15-10.59,5.72,0,11.57,3.21,11.57,9.76,0,8.64-4.6,13.8-11.57,13.8Z" style="fill:#1e2245;"></path><path d="M629.48,364.02c21.89,0,10.6,23.84,33.04,23.84,9.61,0,15.33-4.47,15.33-19.38,0-20.77-21.19-34.57-46.28-34.57-31.64,0-42.79,15.61-42.79,37.22,0,49.49,57.99,50.18,57.99,69.28,0,4.74-3.62,7.81-10.73,7.81-15.89,0-13.66-23.84-32.2-23.84-10.73,0-15.05,8.36-15.05,19.51h-.15c0,14.78,13.66,34.57,42.79,34.57,33.04,0,46.28-13.8,46.28-38.05,0-42.93-57.57-46.83-57.57-68.44,0-5.44,3.21-7.95,9.34-7.95Z" style="fill:#1e2245;"></path></svg>